# xmcd CD database file
#
# Track frame offsets:
#	150
#	19882
#	39452
#
# Disc length: 788 seconds
#
# Revision: 1
# Processed by: cddbd v1.5PL3 Copyright (c) Steve Scherf et al.
# Submitted via: CDex 1.50Beta7
#
DISCID=1c031203
DTITLE=AiM - 夕陽の約束
DYEAR=2002
DGENRE=Anime
TTITLE0=夕陽の約束
TTITLE1=My Place
TTITLE2=夕陽の約束 (Instrumental)
EXTD=YEAR: 2002
EXTT0=
EXTT1=
EXTT2=
PLAYORDER=
